<svg xmlns="http://www.w3.org/2000/svg" viewBox="0 0 400 400"><path fill-rule="evenodd" clip-rule="evenodd" fill="#444648" d="M213.532 306.71l-35.951 73.222 2.629-31.571 12.716-48.666 6.313-7.425z"/><path fill-rule="evenodd" clip-rule="evenodd" fill="#6e884a" d="M158.289 181.316l-2.63 44.719-16.049 9.179-11.134-7.424 4.821-29.375 21.484-34.638z"/><path fill-rule="evenodd" clip-rule="evenodd" fill="#cea19c" d="M175.663 134.194l7.352 15.975 24.286 7.234 15.202-4.66 7.158-17.263-9.645-3.069z"/><path opacity=".1" fill-rule="evenodd" clip-rule="evenodd" fill="#2c2b2b" d="M303.994 388.64l-92.842-12.154-101.233 10.041L210.102 400z"/><path fill-rule="evenodd" clip-rule="evenodd" fill="#444648" d="M257.379 366.738l10.61 15.217-2.414 1.491-32.765-.217-2.346-1.274 3.678-14.34 12.273-4.384zM164.39 381.763l-16.899-.2-2.593-1.761 15.426-13.289z"/><path fill-rule="evenodd" clip-rule="evenodd" fill="#686b6d" d="M144.898 379.802h20.046v3.353h-20.046z"/><path fill-rule="evenodd" clip-rule="evenodd" fill="#6d6e6e" d="M252.117 288.733l.017 42.372-3.744 36.071-14.248.439-6.116-19.795-29.4-54.262 5.262-6.14 26.22-11.701z"/><path fill-rule="evenodd" clip-rule="evenodd" fill="#8b8a8a" d="M231.778 286.591l13.585-18.045 13.547 16.957-1.531 81.235-8.989.438z"/><path fill-rule="evenodd" clip-rule="evenodd" fill="#5a753d" d="M276.539 190.261l-15.654-27.36-4.822 15.345-1.754 52.174 24.431 9.337 5.587-17.576z"/><path fill-rule="evenodd" clip-rule="evenodd" fill="#6e884a" d="M192.926 286.541l5.508 7.802 33.344-7.752 27.132-1.088 1.975-122.602-23.237-4.822-3.948 17.976-33.255 32.18-5.766 16.485z"/><path d="M154.781 163.777l-5.862 118.337s48.977 12.096 49.515 12.228c.54.137 3.263-81.898 3.263-81.898l-29.377-39.897 1.754-15.784-19.293 7.014z" fill-rule="evenodd" clip-rule="evenodd" fill="#5a753d"/><path fill-rule="evenodd" clip-rule="evenodd" fill="#3a592a" d="M208.144 254.322l-8.36 6.548-7.568-7.006 8.285-6.885z"/><path fill-rule="evenodd" clip-rule="evenodd" fill="#45622e" d="M209.017 225.096l-8.215 6.436-7.57-7.004 8.082-6.766z"/><path fill-rule="evenodd" clip-rule="evenodd" fill="#6e884a" d="M306.647 218.253l-27.907 21.504-2.201-49.496 9.284-4.673 9.915 3.507z"/><path fill-rule="evenodd" clip-rule="evenodd" fill="#dddddc" d="M292.396 179.812l3.365 9.342-19.222 1.107-.505-11.384 9.795-3.749z"/><path fill-rule="evenodd" clip-rule="evenodd" fill="#feeee9" d="M285.856 147.44l.254 16.27-2.479 8.286-7.597 6.881-.734-16.527 6.42-17.977z"/><path fill-rule="evenodd" clip-rule="evenodd" fill="#eecec9" d="M303.359 170.242l-10.963 9.57-16.362-.935 13.608-20.484 8.456-3.058z"/><path fill-rule="evenodd" clip-rule="evenodd" fill="#feeee9" d="M304.018 152.047l-.659 18.195-13.717-11.849 6.264-21.473z"/><path fill-rule="evenodd" clip-rule="evenodd" fill="#5a753d" d="M108.041 217.677l31.569 17.537-5.701-53.927-9.207-3.947-8.768 2.192z"/><path fill-rule="evenodd" clip-rule="evenodd" fill="#dddddc" d="M133.032 170.982l.877 10.305-17.975-1.755 1.753-8.55 8.33-2.63z"/><path fill-rule="evenodd" clip-rule="evenodd" fill="#feeee9" d="M134.349 140.072l-1.317 30.91-8.549-5.698-1.484-11.379 6.088-14.27z"/><path fill-rule="evenodd" clip-rule="evenodd" fill="#eecec9" d="M108.479 156.734l9.208 14.248h15.345l-10.033-17.077-15.614-3.529z"/><path fill-rule="evenodd" clip-rule="evenodd" fill="#feeee9" d="M93.352 140.292l14.033 10.084 10.302 20.606-19.949-12.714z"/><path fill-rule="evenodd" clip-rule="evenodd" fill="#cdcccb" d="M220.109 169.038l-9.646-6.137h-16.219l-10.087 3.507 8.33 20.169 17.098 1.315z"/><path fill-rule="evenodd" clip-rule="evenodd" fill="#46af85" d="M205.64 169.038l3.945 18.854.44 9.208-8.329 15.345-9.647-17.1.673-8.751 5.465-17.993 3.509-.878z"/><path d="M206.779 174.48l1.383 6.605-11.713-6.759 1.738-5.725 8.592 5.879zm2.815 13.532s-9.517-6.135-14.542-9.09l-1.675 5.518v.001l16.512 9.823-2.495 4.59-14.908-9.176-.437 5.667 14.445 8.255 2.257-4.154 1.191-4.097-.348-7.337z" fill-rule="evenodd" clip-rule="evenodd" fill="#308b69"/><path fill-rule="evenodd" clip-rule="evenodd" fill="#308b69" d="M210.463 162.901l-4.823 6.137-7.453-.437-3.943-5.7 2.848-5.481 6.137-2.411 5.261 2.849z"/><path fill-rule="evenodd" clip-rule="evenodd" fill="#5a753d" d="M239.401 178.685l-1.753-20.606-21.922 10.959-14.03 43.407z"/><path fill-rule="evenodd" clip-rule="evenodd" fill="#6e884a" d="M174.074 156.763l14.468 11.399 13.154 44.283-34.2-38.146z"/><path fill-rule="evenodd" clip-rule="evenodd" fill="#eecec9" d="M234.802 148.71l-17.401 13.119 7.874-23.28-17.019.837 10.446-20.128 10.085-54.368-8.985-10.618 21.26 1.411 3.068 30.693 1.96 28.973z"/><path fill-rule="evenodd" clip-rule="evenodd" fill="#cea19c" d="M239.327 97.807l6.763 17.542 5.469-14.287-5.854-4.948z"/><path fill-rule="evenodd" clip-rule="evenodd" fill="#a0a1a0" d="M236.071 89.746l4.902.115 19.429-8.721-9.254-16.689-11.401-3.945z"/><path fill-rule="evenodd" clip-rule="evenodd" fill="#feeee9" d="M243.86 75.92l-4.533 21.887 12.232 3.255 8.843-19.922z"/><path fill-rule="evenodd" clip-rule="evenodd" fill="#cea19c" d="M247.624 82.316l-2.504 10.143 8.822-8.418z"/><path fill-rule="evenodd" clip-rule="evenodd" fill="#cdcccb" d="M250.708 18.854l-10.523 18.414-.438 23.238 20.655 20.634z"/><path fill-rule="evenodd" clip-rule="evenodd" fill="#c2c1c2" d="M181.434 0l69.274 18.854-11.145 42.675-32.7-25.136zM150.304 41.653l12.716-3.507 13.591-16.661-1.753-8.769-37.708 13.59 7.016 13.592z"/><path fill-rule="evenodd" clip-rule="evenodd" fill="#a0a1a0" d="M146.756 77.247l3.987-19.371-.439-16.223-13.154-15.347z"/><path fill-rule="evenodd" clip-rule="evenodd" fill="#feeee9" d="M169.397 139.09l38.859.296 17.974-19.549 8.087-60.234-7.283-4.797-33.206-17.853-27.74-9.33-16.032 13.741-3.3 35.883 3.018 37.529z"/><path fill-rule="evenodd" clip-rule="evenodd" fill="#eecec9" d="M161.207 66.455l-4.021.56 8.978 9.834 8.722 19.296 8.798-7.054 8.955 6.984 20.198-28.501-8.669.076-10.601-.239-1.909 1.844-4.535 5.028-3.758 4.765-1.328-4.759-2.941-5.099-3.303-2.337z"/><path fill-rule="evenodd" clip-rule="evenodd" fill="#dddddc" d="M178.604 39.145l-12.516-11.522L181.434 0l58.129 61.529zM234.802 148.71l2.846 9.369-22.818 13.725-11.601-16.795z"/><path fill-rule="evenodd" clip-rule="evenodd" fill="#dddddc" d="M181.769 147.463l21.46 7.546-13.989 15.504-15.166-13.75z"/><path fill-rule="evenodd" clip-rule="evenodd" fill="#308b69" d="M231.778 286.591l-5.663 99.556-5.699 3.389-2.632-13.589 4.231-88.034 3.345-4.856 3.825-.023z"/><path fill-rule="evenodd" clip-rule="evenodd" fill="#6fc5a3" d="M215.708 280.091l9.652 2.966-4.944 106.479-57.655-1.971-13.842-105.45 8.964-2.129z"/><path fill-rule="evenodd" clip-rule="evenodd" fill="#1a7455" d="M231.778 286.591l7.931-3.119-9.498-10.306-86.084-.655-4.382 3.119 9.174 6.485 76.441.942z"/><path fill-rule="evenodd" clip-rule="evenodd" fill="#308b69" d="M237.66 237.184l-11.31-7.29.86 35.024 2.851 11.977 9.648 6.577z"/><path fill-rule="evenodd" clip-rule="evenodd" fill="#a0a1a0" d="M178.313 218.637l1.675 2.532-.924 32.32-2.55 2.237-1.632-2.357 1.588-32.421z"/><path fill-rule="evenodd" clip-rule="evenodd" fill="#6fc5a3" d="M226.35 229.894l-74.768-1.527-11.837 47.263 90.316 1.265z"/><path fill-rule="evenodd" clip-rule="evenodd" fill="#a0a1a0" d="M184.211 204.766l4.789 9.061-11.49 1.87-8.266-3.45 4.952-7.983z"/><path fill-rule="evenodd" clip-rule="evenodd" fill="#686b6d" d="M189 213.827l-19.756-1.58 4.813 8.55 8.551.536zM230.464 381.955h37.525v3.352h-37.525z"/><path fill-rule="evenodd" clip-rule="evenodd" fill="#cea19c" d="M180.532 88.929l-5.646 7.217 9.057 6.236 8.696-6.307z"/><path fill-rule="evenodd" clip-rule="evenodd" fill="#fef4f2" d="M182.037 74.289l-7.151 21.857 17.753-.071-5.517-21.792z"/><path d="M167.258 70.696c2.198-.05 4.02 1.691 4.071 3.889.05 2.198-1.691 4.021-3.889 4.071-2.198.05-4.021-1.691-4.071-3.89-.051-2.197 1.691-4.019 3.889-4.07zM204.319 71.057c2.156-.049 3.943 1.658 3.992 3.814.049 2.156-1.657 3.943-3.814 3.992-2.155.049-3.942-1.658-3.992-3.814-.048-2.156 1.659-3.943 3.814-3.992z" fill-rule="evenodd" clip-rule="evenodd" fill="#2b2c2b"/><path fill-rule="evenodd" clip-rule="evenodd" fill="#eecec9" d="M171.908 94.737l-10.417 11.106.136 9.628-3.772-12.08zM198.137 93.023l13.269 11.553-3.627 12.547-.285-11.163z"/><path fill-rule="evenodd" clip-rule="evenodd" fill="#cea19c" d="M163.184 107.043l42.698-.087-12.11 13.401-18.121.178z"/><path fill-rule="evenodd" clip-rule="evenodd" fill="#fff" d="M170.096 109.844l30.352-.376-4.381 4.173-11.992 1.975-10.092-1.596z"/><path fill-rule="evenodd" clip-rule="evenodd" fill="#7c6462" d="M196.067 113.641l-3.487 3.321-15.816.045-2.781-2.987z"/><path fill-rule="evenodd" clip-rule="evenodd" fill="#a0a1a0" d="M192.583 66.13l20.225.132.029 1.312-21.178 1.681zM178.243 66.147l-21.125-.364.068 1.233 21.91 2.174z"/><path fill-rule="evenodd" clip-rule="evenodd" fill="#eecec9" d="M184.919 61.526l-1.356 8.587 2.954.331zM210.787 78.252l12.035.239-5.978 1.594zM210.228 79.766l8.529 3.427h-5.182zM161.928 78.332l-9.883 1.514 5.738 1.195zM161.211 81.44l-5.978 3.826 3.985-.319z"/><g fill-rule="evenodd" clip-rule="evenodd"><path fill="#54b08c" d="M175.389 345.312l-5.251 1.413-3.2 5.417 2.737-.572 1.112-2.383 5.44-1.581z"/><path d="M180.345 339.671c-.385.007-1.446 2.115-1.446 2.115l-5.211 3.61 1.216 3.441s9.948-3.092 10.498-3.102c.547-.008-5.057-6.064-5.057-6.064z" fill="#5ea68a"/><path fill="#54b08c" d="M183.389 348.479l-.814.536-4.162 7.001 9.128 6.377 8.405-7.9-5.083-6.066z"/><path d="M182.024 345.92l.55 3.095 4.169 2.592 4.12-3.18.76-3.613s-9.567.333-9.423.169c.145-.164-.176.937-.176.937z" fill="#5ea68a"/><path fill="#54b08c" d="M198.075 344.603l5.299 1.225 3.393 5.297-2.756-.473-1.198-2.342-5.493-1.386z"/><path d="M192.921 339.144c.385-.007 1.521 2.061 1.521 2.061l5.337 3.422-1.092 3.481s-10.052-2.732-10.602-2.723c-.548.011 4.836-6.241 4.836-6.241z" fill="#5ea68a"/><path fill="#5ea68a" d="M194.528 329.277l2.883-.107 2.196-4.766-2.373-3.585 6.228-8.273 10.063-5.787-5.264 12.901-1.034 9.746-12.785 11.8-.726-5.072zM178.295 329.568l-2.885-.003-2.366-4.685 2.243-3.668-6.52-8.044-10.266-5.423 5.725 12.705 1.382 9.703 13.29 11.634.454-5.395zM183.414 323.871l-2.173 1.413-2.081 3.499 13.068.783 1.068-2.447-1.507-2.108-2.765-2.423z"/><path fill="#5ea68a" d="M183.079 317.418l-.296-1.149 2.56-1.309 5.626 2.619-.562.889 1.382 6.543-2.958-.964-2.127.918-1.826-.681-3.637 1 3.466-4.377-1.581-2.39z"/><path fill="#54b08c" d="M178.09 327.374l-.812 6.142 1.62 8.271 7.93 6.974 7.614-7.555 1.395-8.05-1.351-6.406-4.428 1.371-3.687-2.017-4.251 2.269z"/><path d="M180.81 343.468l2.163 1.904-.231-12.89-2.128.038.196 10.948zm4.853 4.269l1.165 1.025.965-.957-.276-15.408-2.128.038.274 15.302zm4.73-2.513l2.092-2.076-.195-10.837-2.128.038.231 12.875z" fill="#75c7a6"/><path fill="#54b08c" d="M178.09 327.374l-.811 6.142 18.553-.332.005-.028-1.351-6.406-4.428 1.371-3.687-2.017-4.251 2.269z"/><path fill="#98d3bc" d="M182.783 316.269l-1.911.693.097 2.335 3.834-.728z"/><path d="M185.758 296.662c1.684-.031 3.074 1.311 3.104 2.994.03 1.685-1.311 3.074-2.995 3.105-1.684.029-3.073-1.311-3.104-2.995-.03-1.684 1.311-3.075 2.995-3.104zm-14.371 7.145c1.165-.021 2.125.906 2.146 2.07.021 1.165-.905 2.125-2.07 2.146-1.164.021-2.124-.906-2.145-2.071-.022-1.163.905-2.123 2.069-2.145zm28.99-.519c-1.164.021-2.091.982-2.07 2.146.021 1.165.982 2.092 2.146 2.071 1.164-.021 2.091-.982 2.069-2.146-.02-1.165-.981-2.093-2.145-2.071zm-6.287-3.719c-1.426.024-2.561 1.201-2.536 2.629.025 1.425 1.202 2.56 2.628 2.534 1.426-.025 2.561-1.201 2.536-2.628-.026-1.426-1.202-2.561-2.628-2.535zm-16.554.297c1.427-.026 2.604 1.109 2.629 2.534.025 1.427-1.109 2.604-2.536 2.629-1.426.026-2.603-1.109-2.628-2.536-.025-1.426 1.109-2.603 2.535-2.627z" fill="#5ea68a"/><g fill="#54b08c"><path d="M161.023 338.684l1.277 7.882 6.197 1.765-2.038-5.825zM211.278 335.813l-.37 7.978-5.956 2.458 1.362-6.019z"/></g></g><path fill-rule="evenodd" clip-rule="evenodd" fill="#69c4a2" d="M236.225 195.209h7.445v9.231h-15.026v-4.33z"/><path fill-rule="evenodd" clip-rule="evenodd" fill="#fff" d="M235.209 195.209h8.461v1.42h-8.461zM235.209 197.481h8.461v1.42h-8.461zM228.644 200.151h15.026v1.42h-15.026zM228.644 203.02h15.026v1.42h-15.026z"/><path fill-rule="evenodd" clip-rule="evenodd" fill="#138863" d="M228.644 195.209h7.581v4.942h-7.581z"/></svg>