<svg xmlns="http://www.w3.org/2000/svg" viewBox="0 0 400 400"><path fill="#2c2b2b" fill-opacity=".102" d="M100.955 363.297l143.505 36.966 102.658-37.694-122.051-17.817z"/><path fill="#25604a" d="M225.792 380.871l-8.844 5.939.122 3.999 27.028 2.062 19.269-31.152zM196.1 374.932l-10.06 4.121.484 4.604 36.12-.728s3.515-8.482 3.03-8.604c-.363-.122-29.574.607-29.574.607z"/><path d="M154.164 106.83l-3.273 7.879 1.696 15.755 14.303 8.485s13.453-18.546 14.059-17.089c.606 1.452-13.333-18.424-13.333-18.424l-13.452 3.394z" fill="#3e3229"/><path fill="#524137" d="M153.193 88.044l-7.635 8.97 5.213 17.696 14.785-.484 5.455-10.061-6.424-15.275z"/><path fill="#3e3229" d="M289.305 104.89l4.365.85-12.847 28.117-9.942-28.967z"/><path fill="#524137" d="M280.579 68.408l5.573 16.606 7.518 20.726-11.635 7.391-16.605-25.937z"/><path fill="#382f26" d="M263.367 31.321l27.028 17.573-4.243 36.12-11.028-3.153-8.482-22.423z"/><path fill="#524137" d="M236.824 18.958l22.301-9.576 31.27 39.512-14.788 11.273-14.18 7.151-16.728-30.058z"/><path fill="#382f26" d="M280.94 121.861l-.117 11.996-28.606 14.181-5.215-1.574 11.879-17.818z"/><path fill="#dddddc" d="M83.865 290.574l-3.03 15.272 4 18.179 6.424.367 3.757-4.244 2.182 4.606 5.575.361 10.06-18.057-5.575-20.364z"/><path d="M85.078 271.907c.848.972 11.514 24.847 11.514 24.847l16.241 10.304 22.423-5.093 28.604-23.631-43.026-18.668-35.755 12.123v.118z" fill="#a3a3a3"/><path fill="#a3a3a3" d="M80.715 266.456l-13.575 4.967-12.12 15.271 25.815 19.152 15.757-9.21.364-9.82z"/><path fill="#898989" d="M147.134 310.572l-34.301-3.514 29.09-19.152zM160.345 339.902l-2.303 8.97-7.029 11.635 18.664-2.059 1.456-21.816z"/><path fill="#959595" d="M157.436 324.876l-.97 14.181 1.576 9.815 12.121.606 13.574-50.177-26.907 1.456z"/><path fill="#898989" d="M139.982 346.57l-8.605 7.03-11.879 11.028 25.576.122z"/><path fill="#959595" d="M149.314 322.207l-8.241 13.335-9.696 18.058 13.697 11.15 11.392-25.693z"/><path d="M141.195 270.333l.728 17.573-.85 47.754 15.273 3.396 8-53.815s-.244-9.575 2.06-10.91l-25.333-3.998h.122z" fill="#a3a3a3"/><path d="M156.466 339.057l17.334-34.062 4.605-21.572c-3.757-3.759-7.271-7.029-9.09-8.726l-2.667-.366c-2.424 1.335-7.635 3.397-7.635 3.397l-2.425 61.446-.122-.117z" fill="#a3a3a3"/><path fill="#9da1a2" d="M151.861 256.758l7.03 20.848 14.786 27.389 26.06-37.571-24.483-22.666z"/><path fill="#c4c4c4" d="M120.591 245.485l7.877-10.544 50.662 5.211-5.575 16.362-14.664 21.092-16.968 10.3-12.607-15.027z"/><path fill="#dddddc" d="M98.288 269.727l-1.332-17.212 31.512-17.574.848 37.938z"/><path fill="#898989" d="M102.047 260.272l19.27-12.606-.726 23.879z"/><path fill="#dddddc" d="M94.29 261.484l2.666-8.969-32.36-18.18 2.544 37.088z"/><path fill="#898989" d="M89.927 260.395l-15.636-9.938 1.213 18.785z"/><path fill="#3a592a" d="M213.556 345.602l-8.487 12.968-29.089 9.21 13.697-69.448 15.392 5.089z"/><path fill="#207455" d="M214.157 352.631l-9.088 5.939-19.029 20.483 38.182-.851 6.541-24.48z"/><path d="M230.763 353.722l-7.753 7.392-6.184 25.574 26.421 1.818s3.397-29.09 4.243-29.329c.846-.244-16.972-5.455-16.972-5.455h.245z" fill="#308b69"/><path fill="#258261" d="M209.797 321.723l-8.609 14.302 3.881 22.545 17.941 2.543 3.994-32.844z"/><path fill="#3da07b" d="M227.977 326.934l-7.152 10.426 2.185 23.753 26.299.243-12.969-43.148z"/><path fill="#9da938" d="M190.039 300.391l4.121 5.817 7.028 29.817 19.637 1.335 8.001-45.088-38.059 2.057z"/><path d="M190.039 300.391l3.759 5.333c8.726 3.03 26.055 8.97 30.782 10.666l.488-2.908c-.488-4.728-.968-13.697-1.212-20.966l-33.089 1.814-.728 5.939v.122z" fill="#b5c436"/><path fill="#b9be4c" d="M222.766 293.361l-4.728 5.578 2.787 38.421 21.21-1.213 2.303-35.028z"/><path fill="#d8e14d" d="M222.766 293.361l-4.728 5.578 1.091 15.51 24.725-5.695.484-7.635z"/><path d="M213.311 293.361l4.849 5.577 9.816 2.181s13.818-10.423 12.847-12.241c-.969-1.818-12.119-24.725-12.119-24.725l-33.574-.851 18.182 30.181v-.122z" fill="#207455"/><path fill="#dddddc" d="M222.644 271.183l-1.937 7.635 6.541 22.179 20.242-18.786-12.846-15.637z"/><path fill="#308b69" d="M197.312 288.996l7.757 14.425 12.969-4.482-.968-19.275-3.275-33.088-15.757 1.941z"/><path fill="#393939" d="M214.886 273.241l-10.304 6.062-3.755 9.21 4.12 6.182 4.85-1.94z"/><path fill="#46af85" d="M203.979 251.791l.603 27.512.365 15.392.122 8.726-15.392-5.089-3.879-49.815z"/><path d="M189.919 251.303c1.09.122 51.876-1.574 51.876-1.574l-1.578-53.208-3.271-40.964-43.149 11.268-14.181 36.242 10.302 48.119v.117z" fill="#207455"/><path fill="#6fc5a3" d="M190.767 253.727l23.634 1.334-3.514-11.394-5.94-.361-12.968.605z"/><path fill="#484848" d="M217.916 258.698l-2.79 9.939-10.544 10.666 12.488.361 13.693-3.392 1.7-15.393z"/><path fill="#393939" d="M213.795 246.576l.728-13.087-3.88-10.666-7.753 1.937-1.941 9.332 3.998 9.214z"/><path fill="#efd0cb" d="M223.127 241.243l-8.604-7.754-9.576 9.817 10.179 25.331 11.516-5.212 1.335-16.605z"/><path fill="#cea19c" d="M231.369 237.244l-5.577-1.452-11.269-2.303 12.119 29.936z"/><path d="M188.222 189.006l8.484-7.757 34.663 43.511-5.695 11.15s-31.634-44.239-34.543-44.239c-2.909 0-2.909-2.542-2.909-2.542v-.123z" fill="#46af85"/><path fill="#6fc5a3" d="M234.644 193.611L224.1 182.945l-35.636 41.09 3.393 13.938 36.603-44.118z"/><path fill="#507033" d="M168.708 196.764l.242 11.634 4.727 96.597 5.697 5.094 9.455-4.606-.607-131.142-16.485 6.302-3.029 17.451z"/><path fill="#496b32" d="M173.677 304.995l-16.847 66.056 11.15 4.121 20.849-62.419v-7.27l-5.092-.488z"/><path d="M183.615 175.31c.122-1.335 13.211 5.939 13.211 5.939l-2.667 124.959-5.817 5.455-4.605-6.668-.97-121.928.728-7.758h.12z" fill="#6e884a"/><path fill="#64803f" d="M194.16 306.208l-17.09 77.812-9.09-8.848 15.757-70.055v-.122z"/><path fill="#6e884a" d="M241.066 174.341l-16.966 8.604 3.754 118.174 21.573 65.205 18.668-68.48z"/><path fill="#507033" d="M240.339 176.4l-.725 119.747 19.998 70.421 34.058-43.51L266.276 176.4z"/><path fill="#42602d" d="M272.821 249.484l1.697-51.024-20.844-12.484 1.452 110.66 19.029 65.933 13.575-10.788-13.936-75.754z"/><path d="M296.216 332.995l-8.729 48.844-18.302-79.508-2.303-108.114s18.546-9.576 18.424-7.513c-.122 2.058 6.184 126.655 6.184 126.655l4.967 19.758-.241-.122z" fill="#507033"/><path fill="#6e884a" d="M284.939 194.58l6.79 14.908 3.031 83.751 8.966 52.24-22.786-47.513-1.452-95.751z"/><path fill="#64803f" d="M227.854 301.119l16.244 91.752 12.724-3.881 10.788-87.265-12.484-5.089-15.512-.489z"/><path fill="#496b32" d="M239.614 296.147l17.208 92.843 10.666-6.785 26.182-59.147-5.094-27.756-7.636 2.664-11.874 4.365-13.94-5.695z"/><path fill="#3a592a" d="M255.126 296.636l12.362 85.569 19.998-.366.244-30.058-9.698-52.724-8.966 3.274z"/><path d="M296.216 332.995l7.029 34.663-2.063 3.637-13.696 10.544-18.302-79.508 11.756-4.365 9.454-3.148c.607 11.15.973 18.542.973 18.542l4.967 19.758-.118-.123z" fill="#4b6931"/><path fill="#627d3e" d="M294.76 293.239l19.513 74.904-13.09 3.152-20.243-73.329z"/><path d="M171.737 180.643l-7.635 2.425-1.333 12.606 6.181 12.725 5.939-17.574c.001 0-3.394-10.06-3.152-10.182z" fill="#93b864"/><path fill="#add069" d="M188.222 174.341l-5.455 8.604-7.877 7.88-10.788-7.758 2.304-11.028z"/><path fill="#bcda89" d="M284.939 194.58l-5.451 7.635-25.814-16.239 24.358-7.636z"/><path fill="#add069" d="M278.032 178.34l20.364 11.394-6.667 19.754-12.241-7.273z"/><path fill="#93b864" d="M250.52 167.796l27.512-5.939 20.364 27.877-44.722-3.758z"/><path fill="#308b69" d="M196.948 161.491l6.303 5.939 8.36 9.214 31.153-13.213-4.244-21.088z"/><path fill="#bcda89" d="M203.251 167.43l-6.425 13.819-13.937 1.818-16.483-11.028 9.696-8.486 25.697-.244z"/><path fill="#a3ba7b" d="M208.097 157.252l-4.846 10.178-27.149-3.877z"/><path d="M229.429 169.13l-5.329 13.815 29.574 3.152 24.358-24.119-9.454-1.212s-17.939 1.212-19.151.724c-11.024-3.515-.362-22.3-19.876 7.64h-.122z" fill="#bcda89"/><path fill="#a3ba7b" d="M233.065 159.676l-3.636 9.454 48.603-7.273-7.753-1.94-23.517-6.062z"/><path fill="#efd0cb" d="M210.402 151.675l31.995 3.275 9.332.117.488-7.029 10.423-26.421-18.302-65.449-11.757-18.786-17.573-2.547-8.726 92.237z"/><path fill="#eecec9" d="M212.823 170.945l18.668-7.27 20.238-8.608.488-7.029-10.3-1.212-18.668 5.211z"/><path fill="#cea19c" d="M195.372 137.86l-5.695 8.726 23.146 24.359 16.365-18.908-18.786-.362z"/><path fill="#3e3229" d="M219.129 136.766l-6.668 13.213 4.972 2.058h11.755l24.603-28.724 2.425-8.848-6.907-6.301-16.606 17.33z"/><path fill="#382f26" d="M169.314 127.194l-16.847 3.271 30.422 20.604.242-18.786z"/><path fill="#3e3229" d="M172.223 70.471l-23.635 10.177-3.03 16.366 15.635 2.543 15.877-10.423z"/><path fill="#524137" d="M156.588 51.079l-14.303 7.391 6.303 22.178 12.363-2.058 9.576-27.756z"/><path fill="#ffeee9" d="M160.467 42.715l1.212 71.628 5.331 13.213 15.515 18.058 4.849 4.12 27.149.122 3.149-5.088 15.031-19.274 3.515-14.059-2.063-69.086-44.116 6.789-20.482-12.362z"/><path fill="#524137" d="M167.01 127.556l15.879 23.513 34.544.968 15.27-26.543-15.877 13.456-16.363 3.271-5.091-4.361-5.089 4.605-10.909-1.941z"/><path fill="#cea19c" d="M205.313 45.624l-10.303 6.423 18.179 1.818 7.518 5.089 13.937-2.058-13.335-14.787zM182.403 40.168l.486 7.88-22.302 6.423-6.06-13.575z"/><path fill="#efd0cb" d="M174.041 72.895l13.817 5.333 3.999 6.664 2.546 4.364 3.393-4.364 4.972-6.546 11.15-5.939 6.423-.846 9.454 2.664-15.516 12.607-14.423 18.664-4.604-7.27-5.939 2.909-10.303-14.303-14.908-10.422z"/><path fill="#cea19c" d="M193.069 100.163l-4.363 5.455 5.575 3.636 5.575-3.758z"/><path fill="#3e3229" d="M188.948 73.501l-1.09 4.727-14.665-3.637-9.091 1.819 8.121-5.939zM200.463 73.501l2.305 4.845 16.726-5.211 10.301 1.09-9.82-5.089z"/><path fill="#fff5f3" d="M197.796 84.892h-5.939l-3.151 20.726 11.15-.122z"/><path fill="#3e3229" d="M192.949 112.647l-14.787 7.757-4.243 7.88 6.182-4.487 12.848-5.695zM195.13 112.891l.122 5.455 16.848 4.239 8.119 6.183-6.062-9.454z"/><path fill="#cea19c" d="M184.463 123.679l20.484.362-.605 2.665-19.635.122z"/><path fill="#c4c4c4" d="M96.956 252.515L67.14 271.423l29.816 15.393 32.36-13.937z"/><path fill="#898989" d="M89.079 315.544l11.756.724-3.637 8.486-5.939-.362z"/><path d="M81.079 292.393c1.332 0 2.422-1.456 2.422-3.274s-1.09-3.271-2.422-3.271c-1.335 0-2.425 1.452-2.425 3.271 0 1.817 1.091 3.274 2.425 3.274zM111.501 292.393c1.332 0 2.422-1.456 2.422-3.274s-1.09-3.271-2.422-3.271c-1.335 0-2.425 1.452-2.425 3.271 0 1.817 1.09 3.274 2.425 3.274z" fill="#207455"/><path fill="#524137" d="M256.822 111.313l9.82 22.422 14.181.122 1.212-20.726-9.454-1.696z"/><path fill="#46382d" d="M259.368 113.131l-5.577 10.182-1.574 24.725 14.425-14.303 1.09-18.42zM272.093 80.409l3.031 1.452 6.911 31.27-14.303 2.184-14.424-16.727 10.666-9.816z"/><path fill="#524137" d="M261.064 94.223l-2.062 5.455 8.73 15.637-13.941 7.998-4.482-15.149z"/><path fill="#3e3229" d="M259.853 49.984l15.754 10.183-.483 21.694-16.122 17.817-6.663-5.939 4.85-33.934z"/><path fill="#5e5043" d="M255.976 68.046l-7.03 8.242.363 31.876 9.693-8.486 4.125-36.965zM275.607 60.167l-12.48 2.546s-8.485-4.121-13.7-6.423l-1.814 1.33-2.303-2.909-15.149-19.754 16.483-12.969 28.963 38.3v-.121z"/><path fill="#46382d" d="M228.948 37.988l5.207 5.333 14.791 32.967 14.181-13.575-14.425-19.88zM234.277 9.26l24.848.122-12.48 12.485-63.15 16.845 3.879-17.573z"/><path fill="#382f26" d="M186.888 18.714l-11.15-8.604 27.274-8.847 31.265 7.997-19.269 11.879z"/><path fill="#524137" d="M174.525 35.804l-22.18-6.908 23.393-18.786 40.36 11.151-20.362 23.757z"/><path d="M185.192 40.413l9.574-6.79 10.91-6.301c7.998 6.179 16.121 12.485 22.541 17.452L195.13 52.17l-9.818-11.639-.12-.118z" fill="#382f26"/><path d="M205.554 27.2l9.454-6.061 31.637.728-12.367 21.455-6.061 1.33c-6.302-4.967-14.543-11.273-22.541-17.452h-.122z" fill="#46382d"/><path fill="#382f26" d="M218.4 42.833l2.063 8.246 21.088 8.726 7.151-16.972-22.06-5.935zM194.766 33.501l-10.544-10.178s-31.27 8.12-30.786 8.848c.486.724 15.393 11.15 15.757 11.268l25.695 8.608-.242-18.546h.12z"/><path fill="#5e5043" d="M220.463 51.079l16.117-11.516-21.572-18.424-20.242 12.362z"/><path fill="#3e3229" d="M160.587 54.471l-18.302 3.999 10.06-29.574 31.877-5.455z"/><path d="M81.079 285.726c1.94 0 3.515 1.522 3.515 3.393 0 1.876-1.575 3.397-3.515 3.397-1.943 0-3.515-1.521-3.515-3.397 0-1.872 1.572-3.393 3.515-3.393zM111.501 285.726c1.94 0 3.515 1.522 3.515 3.393 0 1.876-1.574 3.397-3.515 3.397-1.942 0-3.517-1.521-3.517-3.397 0-1.872 1.575-3.393 3.517-3.393z" fill="#4f5253"/><path d="M179.01 83.073c2.075 0 3.757 1.684 3.757 3.759 0 2.074-1.682 3.759-3.757 3.759s-3.756-1.684-3.756-3.759 1.682-3.759 3.756-3.759z" fill="#2b2b2b"/><circle cx="214.279" cy="86.832" r="3.759" fill="#2b2b2b"/></svg>